<svg width="58" height="62" viewBox="0 0 58 62" fill="none" xmlns="http://www.w3.org/2000/svg">
<path d="M6.72917 61.2083C4.99896 61.2083 3.51727 60.5928 2.2841 59.3617C1.05303 58.1285 0.4375 56.6469 0.4375 54.9166V40.6031L9.08854 30.7724L13.5714 35.2552L7.27969 42.3333H50.2203L44.0859 35.4125L48.5687 30.9297L57.0625 40.6031V54.9166C57.0625 56.6469 56.447 58.1285 55.2159 59.3617C53.9827 60.5928 52.501 61.2083 50.7708 61.2083H6.72917ZM24.3458 37.3L13.4141 26.2109C12.2082 25.005 11.6052 23.5107 11.6052 21.7281C11.6052 19.9455 12.2082 18.4512 13.4141 17.2453L28.8286 1.8307C30.0345 0.624802 31.5288 0.0218506 33.3115 0.0218506C35.0941 0.0218506 36.5884 0.624802 37.7943 1.8307L48.8833 12.7625C50.0892 13.9684 50.7058 15.449 50.7331 17.2044C50.7583 18.9619 50.1679 20.4436 48.962 21.6495L33.2328 37.3786C32.0269 38.5845 30.5463 39.1749 28.7909 39.1497C27.0334 39.1225 25.5517 38.5059 24.3458 37.3ZM44.4792 17.1666L33.3115 6.15623L17.7396 21.7281L28.9073 32.7385L44.4792 17.1666Z" fill="#4C3EDA"/>
</svg>
